<svg xmlns="http://www.w3.org/2000/svg" viewBox="0 0 800 500" font-family="Georgia, 'Times New Roman', serif">
  <rect width="800" height="500" fill="#E9E6DE"/>
  <g stroke="#171512" stroke-opacity="0.09" stroke-width="1">
    <line x1="0" y1="0" x2="0" y2="500"/>
    <line x1="72" y1="0" x2="72" y2="500"/>
    <line x1="144" y1="0" x2="144" y2="500"/>
    <line x1="216" y1="0" x2="216" y2="500"/>
    <line x1="288" y1="0" x2="288" y2="500"/>
    <line x1="360" y1="0" x2="360" y2="500"/>
    <line x1="432" y1="0" x2="432" y2="500"/>
    <line x1="504" y1="0" x2="504" y2="500"/>
    <line x1="576" y1="0" x2="576" y2="500"/>
    <line x1="648" y1="0" x2="648" y2="500"/>
    <line x1="720" y1="0" x2="720" y2="500"/>
    <line x1="792" y1="0" x2="792" y2="500"/>
    <line x1="0" y1="0" x2="800" y2="0"/>
    <line x1="0" y1="72" x2="800" y2="72"/>
    <line x1="0" y1="144" x2="800" y2="144"/>
    <line x1="0" y1="216" x2="800" y2="216"/>
    <line x1="0" y1="288" x2="800" y2="288"/>
    <line x1="0" y1="360" x2="800" y2="360"/>
    <line x1="0" y1="432" x2="800" y2="432"/>
  </g>
  <polyline points="52.0,347.1 129.3,331.0 206.7,352.9 284.0,324.1 361.3,336.8 438.7,310.3 516.0,327.6 593.3,298.8 670.7,317.2 748.0,289.6" fill="none" stroke="#1f3d7a" stroke-width="2.5" stroke-linejoin="round" stroke-linecap="round" opacity="0.85"/>
  <circle cx="748.0" cy="289.6" r="6" fill="#1f3d7a"/>
  <text x="52" y="96" font-size="26" font-style="italic" fill="#1f3d7a">No. 01</text>
  <text x="52" y="208" font-size="64" letter-spacing="-1" fill="#171512">PULSE-360</text>
  <text x="52" y="248" font-family="Helvetica, Arial, sans-serif" font-size="15" letter-spacing="3" fill="#171512" fill-opacity="0.55">MARKETING INTELLIGENCE</text>
  <text x="52" y="448" font-size="21" font-style="italic" fill="#171512" fill-opacity="0.62">signal in / score out</text>
  <text x="726" y="96" font-size="34" fill="#1f3d7a">&#10034;</text>
</svg>
